<?xml version="1.0" encoding="UTF-8"?>
<svg id="Layer_1" data-name="Layer 1" xmlns="http://www.w3.org/2000/svg" version="1.1" viewBox="0 0 304.4 368.7">
  <defs>
    <style>
      .cls-1 {
        fill: #4873ff;
      }

      .cls-1, .cls-2, .cls-3 {
        stroke-width: 0px;
      }

      .cls-2 {
        fill: #012169;
      }

      .cls-3 {
        fill: #1d2ecf;
      }
    </style>
  </defs>
  <g>
    <path class="cls-2" d="M35.4,275.6c-5.5-.2-11.4-1.4-15.9-4.1l2-4.9c6.4,3,11.5,3.6,15.5,3.6,8,0,12.9-2.7,12.9-10.1s-4.9-8.3-11.5-10.1c-9.4-2.5-18.1-4.8-18.1-14.9s6-14.3,15.1-15.2v-7.7h4.9v7.5c4,.2,8.7,1.1,12.8,3.2l-2,4.8c-5.4-2.2-9.4-2.6-12.9-2.6-6.3,0-11.1,3.2-11.1,9.8s6.4,7.6,12.5,9.2c7.9,2.2,17.2,4.6,17.2,16.1s-7,14.6-16.5,15.4v7.7h-4.9v-7.6h0Z"/>
    <path class="cls-2" d="M79.8,268l-6.5-3.5c.3-6,2.4-36.8,2.7-42.7h48.4v8.5h-39.3l-1.6,28.6c2.7-.9,6.8-2.9,15.2-2.9,15,0,30.1,8.1,30.1,27.4s-15.3,29.3-32.9,29.3-19.8-1.4-28-5.4l2.7-7.6c9.9,3,16.9,4.1,22.5,4.1,14.9,0,24.4-6.4,24.4-20.5s-10-18.9-22.1-18.9-10.6,1.3-15.5,3.5h0Z"/>
    <path class="cls-2" d="M172.3,312.5c-28.2,0-33.9-22.5-33.9-45s5.8-47,34-47,32.8,27.4,32.8,46.6-7.7,45.4-32.9,45.4h0ZM172.6,229.2c-20.5,0-22.8,22.8-22.8,38.5s3.8,36.1,22.8,36.1,21.7-19,21.7-36.4-1.4-38.2-21.7-38.2h0Z"/>
    <path class="cls-2" d="M249.6,312.5c-28.2,0-33.9-22.5-33.9-45s5.8-47,34-47,32.8,27.4,32.8,46.6-7.7,45.4-32.9,45.4h0ZM249.6,229.2c-20.5,0-22.8,22.8-22.8,38.5s3.8,36.1,22.8,36.1,21.7-19,21.7-36.4-1.4-38.2-21.7-38.2h0Z"/>
  </g>
  <g>
    <path class="cls-3" d="M100.8,131c-2.6,0-5.3-.7-7.5-1.9l.9-2.3c3,1.4,5.4,1.7,7.3,1.7,3.8,0,6.1-1.3,6.1-4.8s-2.3-3.9-5.4-4.8c-4.4-1.2-8.5-2.3-8.5-7s2.8-6.8,7.1-7.2v-3.6h2.3v3.5c1.9,0,4.1.5,6,1.5l-.9,2.3c-2.6-1-4.4-1.2-6.1-1.2-3,0-5.2,1.5-5.2,4.6s3,3.6,5.9,4.3c3.7,1,8.1,2.2,8.1,7.6s-3.3,6.9-7.8,7.3v3.6h-2.3v-3.6h0Z"/>
    <path class="cls-3" d="M135.3,131.1c7.1,1,11.8,6.2,11.8,13.3s-6.5,15.2-17.4,15.2-10.8-1.1-14.4-3.1l1.6-4.6c6.1,2.4,9.4,2.7,11.9,2.7,7.8,0,12.3-4,12.4-9.8,0-7.3-5.4-10.9-15.6-10.9v-4.3c9.5-.7,13.4-5.6,13.4-10s-2.5-6.8-8.4-6.8-6.8.7-12.3,3.4l-1.7-4.3c4.9-2.9,10.2-4.2,14.3-4.2,9.8,0,14,5.4,14,11.2s-2.7,9.8-9.5,11.9v.2h-.1Z"/>
    <path class="cls-3" d="M168.6,159.5c-14.7,0-17.7-12.6-17.7-25.2s3-26.3,17.7-26.3,17.1,15.3,17.1,26.1-4,25.4-17.2,25.4h0ZM168.8,112.9c-10.7,0-11.9,12.8-11.9,21.5s2,20.2,11.9,20.2,11.3-10.6,11.3-20.3-.7-21.4-11.3-21.4h0Z"/>
    <path class="cls-3" d="M208.9,159.5c-14.7,0-17.7-12.6-17.7-25.2s3-26.3,17.7-26.3,17.1,15.3,17.1,26.1-4,25.4-17.2,25.4h0ZM208.9,112.9c-10.7,0-11.9,12.8-11.9,21.5s2,20.2,11.9,20.2,11.3-10.6,11.3-20.3-.7-21.4-11.3-21.4h0Z"/>
  </g>
  <g>
    <path class="cls-1" d="M115.8,42.4c-2.5,0-5.1-.6-7.1-1.8l.9-2.2c2.8,1.3,5.2,1.6,6.9,1.6,3.6,0,5.8-1.2,5.8-4.5s-2.2-3.7-5.2-4.5c-4.2-1.1-8.1-2.2-8.1-6.7s2.7-6.4,6.8-6.8v-3.4h2.2v3.4c1.8,0,3.9.5,5.7,1.4l-.9,2.2c-2.4-1-4.2-1.2-5.8-1.2-2.8,0-5,1.5-5,4.4s2.8,3.4,5.6,4.1c3.5,1,7.7,2,7.7,7.2s-3.1,6.5-7.4,6.9v3.4h-2.2v-3.4h0Z"/>
    <path class="cls-1" d="M139.9,22.1l-8.2.8v-2.9l8.5-2h4.2v36.5h-4.5V22.1h0Z"/>
    <path class="cls-1" d="M165.8,54.7c-11.4,0-13.8-9.1-13.8-18.3s2.4-19.1,13.8-19.1,13.3,11.1,13.3,18.9-3.1,18.4-13.4,18.4h0ZM165.8,20.9c-8.3,0-9.2,9.3-9.2,15.6s1.5,14.7,9.2,14.7,8.8-7.7,8.8-14.8-.6-15.5-8.8-15.5h0Z"/>
    <path class="cls-1" d="M197.6,54.7c-11.4,0-13.8-9.1-13.8-18.3s2.4-19.1,13.8-19.1,13.3,11.1,13.3,18.9-3.1,18.4-13.4,18.4h0ZM197.6,20.9c-8.3,0-9.2,9.3-9.2,15.6s1.5,14.7,9.2,14.7,8.8-7.7,8.8-14.8-.6-15.5-8.8-15.5h0Z"/>
  </g>
  <g>
    <path class="cls-1" d="M127.8,68.7l-.6,1.2c-1-.5-1.8-.6-2.4-.6-2,0-3,1.5-3,3.9s.6,3.7,2.8,3.7,1.8-.2,2.9-.8l.5,1.1c-.9.7-2.2,1-3.5,1-3.3,0-4.5-2-4.5-5s.8-5.3,4.7-5.3,2.2.2,3.1.8h0Z"/>
    <path class="cls-1" d="M137.6,71.2v6.8h-1.5v-1.1h-.2c-1.6,1.2-2.9,1.2-3.5,1.2-2.4,0-3-1.6-3-2.8,0-1.9,1.5-2.9,3.5-3l3.1-.2v-.7c0-1.6-.4-2.3-2.2-2.3s-2.2.2-3.2.6c0-.4-.2-.7-.3-1.1,1.2-.5,2.7-.8,3.9-.8,2.2,0,3.5.9,3.5,3.3h-.1ZM133.3,73.4c-1.4,0-2.1.7-2.1,1.8s.6,1.8,1.9,1.8,1.9-.5,2.8-1.3v-2.5l-2.7.2h0Z"/>
    <path class="cls-1" d="M140.2,76.3c1.3.6,2.4.7,3.2.7,1.3,0,2.3-.4,2.3-1.6s-1.1-1.4-2.2-1.8c-1.8-.6-3.5-1.1-3.5-2.9s1.7-2.8,3.7-2.8,2.2.2,3.1.7l-.5,1.2c-1.1-.4-1.8-.5-2.6-.5s-2.1.4-2.1,1.5,1.3,1.2,2.2,1.5c1.7.5,3.5,1.1,3.5,3.2s-1.7,2.8-4.1,2.8-2.7-.3-3.7-.8l.5-1.1h.2Z"/>
    <path class="cls-1" d="M151.2,69c1.2-.6,2.7-1.1,3.6-1.1,2.8,0,2.9,1.7,2.9,3.2v7h-1.7v-6.5c0-1.4-.1-2.2-1.8-2.2s-2.2.5-3.1,1v7.8h-1.7v-14.4h1.7v5.3h.1Z"/>
    <path class="cls-1" d="M170.1,78.2c-3.4,0-4.4-2.4-4.4-5.1s1.3-5.2,4.6-5.2,4.4,2.6,4.4,5.2-1.1,5.1-4.6,5.1h0ZM170.3,69.2c-2.3,0-2.8,2.1-2.8,3.9s.4,3.8,2.8,3.8,2.7-2,2.7-3.8-.4-3.9-2.7-3.9Z"/>
    <path class="cls-1" d="M178.1,69.3h-1.4v-.9l1.4-.4v-1.6c0-2,1.1-3,3.3-3s1.4,0,2.1.2l-.2,1.2c-.5,0-1.1,0-1.6,0-1.3,0-2,.5-2,1.7v1.7h3v1.2h-3v8.7h-1.7v-8.7h0Z"/>
    <path class="cls-1" d="M185.6,69.3h-1.4v-.9l1.4-.4v-1.6c0-2,1.1-3,3.3-3s1.4,0,2.1.2l-.2,1.2c-.5,0-1.1,0-1.6,0-1.3,0-2,.5-2,1.7v1.7h3v1.2h-3v8.7h-1.7v-8.7h0Z"/>
    <path class="cls-1" d="M200.3,72.6v.8h-6.9c0,1.8.6,3.5,2.9,3.5s2.1-.2,3.3-.7l.4,1.1c-1.2.6-2.4.9-3.8.9-3.6,0-4.6-2.3-4.6-5.1s.6-5.2,4.5-5.2,4.1,3.5,4.1,4.7h.1ZM193.6,72.3h5.2c0-1.9-.6-3.2-2.5-3.2s-2.6,1.5-2.8,3.2h.1Z"/>
    <path class="cls-1" d="M204.3,69.9h0c.9-1.4,2.5-2,3.9-2v1.6c-1.1,0-2.6.3-3.8,1.8v6.8h-1.7v-9.9h1.6v1.8h0Z"/>
  </g>
  <g>
    <path class="cls-3" d="M121.1,174l-.7,1.5c-1.2-.7-2.1-.8-2.9-.8-2.4,0-3.6,2-3.6,5.1s.7,4.9,3.4,4.9,2.1-.2,3.6-1.1l.6,1.4c-1.1.9-2.7,1.4-4.3,1.4-4.1,0-5.5-2.6-5.5-6.5s1-6.9,5.7-6.9,2.7.3,3.8,1h0Z"/>
    <path class="cls-3" d="M133.1,177.3v8.9h-1.8v-1.4h-.2c-1.9,1.6-3.5,1.6-4.3,1.6-2.9,0-3.7-2.1-3.7-3.6,0-2.4,1.8-3.8,4.2-3.9l3.7-.2v-.9c0-2.1-.5-3-2.7-3s-2.7.3-3.9.7c0-.5-.2-.9-.4-1.4,1.4-.6,3.3-1,4.8-1,2.7,0,4.2,1.1,4.2,4.3h.1ZM127.8,180.3c-1.7.1-2.5.9-2.5,2.3s.7,2.3,2.3,2.3,2.3-.6,3.4-1.6v-3.2l-3.2.2h0Z"/>
    <path class="cls-3" d="M136.2,183.9c1.6.7,2.9.9,3.8.9,1.6,0,2.8-.5,2.8-2.1s-1.3-1.9-2.7-2.4c-2.2-.8-4.2-1.4-4.2-3.8s2-3.6,4.5-3.6,2.6.2,3.7.9l-.6,1.5c-1.3-.5-2.2-.7-3.1-.7-1.3,0-2.5.5-2.5,1.9s1.6,1.6,2.7,2c2.1.7,4.3,1.4,4.3,4.1s-2.1,3.7-4.9,3.7-3.3-.3-4.4-1l.7-1.5h-.1Z"/>
    <path class="cls-3" d="M149.6,174.4c1.5-.8,3.2-1.4,4.4-1.4,3.4,0,3.6,2.2,3.6,4.1v9h-2.1v-8.5c0-1.8-.2-2.9-2.2-2.9s-2.7.6-3.8,1.3v10.1h-2.1v-18.8h2.1v6.9h.1v.2Z"/>
    <path class="cls-3" d="M172.6,186.4c-4.1,0-5.3-3.1-5.3-6.6s1.5-6.8,5.6-6.8,5.4,3.4,5.4,6.7-1.3,6.7-5.6,6.7h0ZM172.8,174.7c-2.8,0-3.4,2.7-3.4,5.1s.5,4.9,3.4,4.9,3.2-2.6,3.2-4.9-.5-5.1-3.2-5.1Z"/>
    <path class="cls-3" d="M182.1,174.9h-1.7v-1.2l1.8-.5v-2.1c0-2.6,1.4-4,4-4s1.7,0,2.6.3l-.3,1.6c-.6-.1-1.4-.2-1.9-.2-1.6,0-2.4.6-2.4,2.2v2.2h3.6v1.6h-3.6v11.3h-2v-11.3h-.1Z"/>
    <path class="cls-3" d="M191.1,174.9h-1.7v-1.2l1.8-.5v-2.1c0-2.6,1.4-4,4-4s1.7,0,2.6.3l-.3,1.6c-.6-.1-1.4-.2-1.9-.2-1.6,0-2.4.6-2.4,2.2v2.2h3.6v1.6h-3.6v11.3h-2v-11.3h-.1Z"/>
    <path class="cls-3" d="M209.1,179.2v1h-8.3c0,2.4.8,4.6,3.5,4.6s2.6-.3,4-.9l.5,1.4c-1.5.8-3,1.2-4.6,1.2-4.4,0-5.5-3-5.5-6.6s.8-6.8,5.4-6.8,5,4.6,5,6.2h0ZM200.8,178.8h6.3c0-2.5-.7-4.2-3-4.2s-3.2,2-3.3,4.2h0Z"/>
    <path class="cls-3" d="M214.1,175.6h0c1.1-1.9,3.1-2.6,4.7-2.6v2.1c-1.3,0-3.2.4-4.7,2.3v8.8h-2.1v-12.9h2v2.3h.1Z"/>
  </g>
  <g>
    <path class="cls-2" d="M82.8,333.9l-1.3,2.6c-2.2-1.1-3.8-1.4-5.3-1.4-4.4,0-6.5,3.4-6.5,8.5s1.3,8.1,6.2,8.1,3.8-.4,6.4-1.8l1.1,2.4c-2,1.4-4.8,2.3-7.7,2.3-7.3,0-9.9-4.4-9.9-10.9s1.8-11.6,10.2-11.6,4.8.5,6.8,1.7h0Z"/>
    <path class="cls-2" d="M104.2,339.4v14.9h-3.3l-.2-2.4h0c-3.4,2.7-6.3,2.7-7.7,2.7-5.2,0-6.6-3.5-6.6-6,0-4.1,3.2-6.3,7.6-6.6l6.7-.4v-1.5c0-3.5-1-5.1-4.8-5.1s-4.8.5-7,1.2c-.2-.8-.5-1.6-.7-2.4,2.6-1.1,5.8-1.7,8.6-1.7,4.8,0,7.6,1.9,7.6,7.2h-.2ZM94.8,344.3c-3,.2-4.5,1.6-4.5,3.9s1.3,3.9,4.2,3.9,4.1-1,6.2-2.8v-5.4l-5.8.4h0Z"/>
    <path class="cls-2" d="M109.9,350.5c2.8,1.2,5.3,1.5,6.9,1.5,2.8,0,5.1-.8,5.1-3.5s-2.3-3.1-4.8-3.9c-3.9-1.3-7.5-2.3-7.5-6.3s3.6-6.1,8.1-6.1,4.7.4,6.7,1.5l-1.1,2.5c-2.3-.9-4-1.1-5.6-1.1-2.3,0-4.5.8-4.5,3.2s2.9,2.7,4.8,3.3c3.8,1.1,7.7,2.3,7.7,6.9s-3.7,6.2-8.8,6.2-5.9-.6-7.9-1.7l1.2-2.5h-.3Z"/>
    <path class="cls-2" d="M133.9,334.6c2.7-1.4,5.8-2.4,7.8-2.4,6.1,0,6.4,3.7,6.4,7v15.1h-3.7v-14.3c0-3-.3-4.9-3.9-4.9s-4.9,1.1-6.8,2.1v17h-3.8v-31.5h3.7v11.6c-.1,0,.2.2.2.2h.1Z"/>
    <path class="cls-2" d="M175.1,354.7c-7.3,0-9.6-5.2-9.6-11.1s2.7-11.4,10.1-11.4,9.7,5.6,9.7,11.3-2.3,11.2-10.1,11.2h0ZM175.6,335c-4.9,0-6.2,4.5-6.2,8.6s.9,8.3,6.2,8.3,5.8-4.4,5.8-8.3-.9-8.6-5.8-8.6Z"/>
    <path class="cls-2" d="M192.2,335.4h-3.1v-2l3.1-.8v-3.5c0-4.3,2.5-6.6,7.2-6.6s3.1.1,4.7.5l-.5,2.6c-1.1-.2-2.4-.3-3.4-.3-2.8,0-4.3,1-4.3,3.8v3.7h6.5v2.7h-6.5v19h-3.7v-19h0Z"/>
    <path class="cls-2" d="M208.1,335.4h-3.1v-2l3.1-.8v-3.5c0-4.3,2.5-6.6,7.2-6.6s3.1.1,4.7.5l-.5,2.6c-1.1-.2-2.4-.3-3.4-.3-2.8,0-4.3,1-4.3,3.8v3.7h6.5v2.7h-6.5v19h-3.7v-19h0Z"/>
    <path class="cls-2" d="M240.1,342.5v1.7h-14.9c0,4,1.4,7.7,6.4,7.7s4.6-.5,7.1-1.5l.9,2.3c-2.6,1.4-5.4,2-8.3,2-7.9,0-9.9-5.1-9.9-11.1s1.4-11.3,9.8-11.3,9,7.7,9,10.3h-.1ZM225.1,341.9h11.4c0-4.2-1.3-7-5.4-7s-5.7,3.4-6,7Z"/>
    <path class="cls-2" d="M248.8,336.6h0c2-3.1,5.5-4.4,8.4-4.4v3.5c-2.3,0-5.7.7-8.4,3.9v14.8h-3.8v-21.6h3.5v3.9h.3Z"/>
  </g>
</svg>