<?xml version="1.0" encoding="UTF-8"?>
<svg id="Layer_1" data-name="Layer 1" xmlns="http://www.w3.org/2000/svg" version="1.1" viewBox="0 0 60 60">
  <defs>
    <style>
      .cls-1 {
        fill: none;
      }

      .cls-1, .cls-2 {
        stroke-width: 0px;
      }

      .cls-2 {
        fill: #e31837;
      }
    </style>
  </defs>
  <g id="ICON_ART" data-name="ICON ART">
    <rect class="cls-1" x="-4.1" y="-3" width="68.1" height="68.1"/>
    <path class="cls-2" d="M.2,11.1v39.9h59.6V11.1H.2ZM3,48.1V13.9h16.8c-9.4,5.6-12.6,17.8-7,27.2,1.7,2.9,4.1,5.3,7,7H3ZM30,13.9c9.4,0,17.1,7.7,17.1,17.1s-7.7,17.1-17.1,17.1-17.1-7.7-17.1-17.1c0-9.4,7.7-17.1,17.1-17.1h0ZM57,48.1h-16.8c9.4-5.6,12.6-17.8,7-27.2-1.7-2.9-4.1-5.3-7-7h16.8v34.2Z"/>
    <path class="cls-2" d="M28.6,39.7v3.7h2.8v-3.7c2.6-.2,4.7-2.3,4.9-5,0-2.8-2.1-4.6-6.2-5.1-3.7-.5-3.7-1.8-3.7-2.3,0-1.2,1.6-2.3,3.5-2.3s3.5,1,3.5,2.3v.6h2.8v-.6c-.2-2.6-2.3-4.8-4.9-5v-3.7h-2.8v3.7c-2.6.2-4.7,2.4-4.9,5,0,2.8,2.1,4.6,6.2,5.1,3.7.5,3.7,1.8,3.7,2.3,0,1.2-1.6,2.3-3.5,2.3s-3.5-1-3.5-2.3v-.6h-2.8v.6c.2,2.6,2.3,4.7,4.9,5h0Z"/>
  </g>
</svg>