<?xml version="1.0" encoding="utf-8"?>
<!-- Generator: Adobe Illustrator 27.9.1, SVG Export Plug-In . SVG Version: 6.00 Build 0)  -->
<svg version="1.1" id="Layer_1" xmlns="http://www.w3.org/2000/svg" xmlns:xlink="http://www.w3.org/1999/xlink" x="0px" y="0px"
	 viewBox="0 0 620.956 341.186" style="enable-background:new 0 0 620.956 341.186;" xml:space="preserve">
<style type="text/css">
	.st0{fill:#012169;}
	.st1{fill:#FFFFFF;}
	.st2{fill:#C2002F;}
	.st3{fill:#222944;}
	.st4{fill-rule:evenodd;clip-rule:evenodd;fill:#E31837;}
	.st5{fill:#E31837;}
</style>
<g>
	<polygon points="427.786,0 427.786,80.951 427.786,214.376 429.178,214.376 429.178,0 	"/>
	<g>
		<g>
			<path class="st0" d="M192.999,306.254c-6.94,0-9.793-4.405-9.793-11.061c0-6.117,2.726-11.346,9.793-11.346
				c7.131,0,9.54,5.261,9.54,11.282C202.539,301.469,199.306,306.254,192.999,306.254z M192.999,286.541
				c-4.785,0-5.926,4.247-5.926,8.684c0,5.356,1.647,8.304,5.926,8.304c3.962,0,5.642-3.645,5.642-8.335
				C198.64,291.073,197.721,286.541,192.999,286.541z"/>
			<path class="st0" d="M206.725,305.969v-21.741h13.977v2.694h-10.3v6.623h8.304v2.6h-8.304v9.824H206.725z"/>
			<path class="st0" d="M224.286,305.969v-21.741h13.977v2.694h-10.3v6.623h8.304v2.6h-8.304v9.824H224.286z"/>
			<path class="st0" d="M242.132,305.969v-21.741h3.645v21.741H242.132z"/>
			<path class="st0" d="M266.219,285.591l-1.331,2.535c-1.584-1.109-3.105-1.458-4.849-1.458c-3.866,0-5.927,3.296-5.927,8.589
				c0,4.31,0.982,8.145,5.863,8.145c0.982,0,2.884-0.127,5.482-1.458l1.078,2.567c-1.712,1.141-4.85,1.743-6.846,1.743
				c-6.94,0-9.444-4.373-9.444-11.029c0-4.69,2.092-11.377,9.824-11.377C262.511,283.848,264.761,284.545,266.219,285.591z"/>
			<path class="st0" d="M270.407,305.969v-21.741h3.645v21.741H270.407z"/>
			<path class="st0" d="M292.338,305.969c-0.538-1.743-1.141-3.55-1.647-5.324h-8.271l-1.648,5.324h-3.708
				c2.504-7.543,4.976-14.801,7.289-21.741h4.659l7.131,21.741H292.338z M288.029,291.707c-0.951-3.265-1.173-4.024-1.363-4.785
				h-0.126c-0.92,3.169-1.142,4.024-1.395,4.849l-1.87,6.275h6.624C289.328,295.954,288.63,293.799,288.029,291.707z"/>
			<path class="st0" d="M298.871,305.969v-21.741h3.677v19.11h11.282v2.631H298.871z"/>
			<path class="st0" d="M325.527,284.228h8.652c4.374,0,6.528,2.346,6.528,5.705c0,1.553-0.665,3.518-2.884,4.595v0.096
				c2.916,0.919,3.486,3.676,3.486,5.229c0,3.708-2.82,6.116-6.497,6.116h-9.286V284.228z M333.197,286.922h-4.024v6.497h4.024
				c2.44,0,3.771-1.205,3.771-3.201C336.969,288.284,335.859,286.922,333.197,286.922z M333.704,296.018h-4.531v7.289h4.531
				c2.821,0,3.898-1.68,3.898-3.677C337.603,297.698,336.335,296.018,333.704,296.018z"/>
			<path class="st0" d="M358.745,305.969c-0.538-1.743-1.141-3.55-1.647-5.324h-8.271l-1.648,5.324h-3.708
				c2.504-7.543,4.976-14.801,7.289-21.741h4.659l7.131,21.741H358.745z M354.436,291.707c-0.951-3.265-1.173-4.024-1.363-4.785
				h-0.126c-0.92,3.169-1.142,4.024-1.395,4.849l-1.87,6.275h6.624C355.734,295.954,355.037,293.799,354.436,291.707z"/>
			<path class="st0" d="M379.444,300.391v-16.163h3.55v21.741h-3.645l-7.892-12.424c-0.349-0.602-2.155-3.454-2.504-4.088
				c-0.063,0-0.095,0.031-0.158,0.031v16.48h-3.519v-21.741h3.708l7.321,11.441l2.947,4.722H379.444z"/>
			<path class="st0" d="M391.491,305.969h-3.646v-21.741h3.646v9.191h0.062l8.652-9.191h4.247l-8.367,8.589l8.747,13.152h-4.246
				c-2.313-3.55-4.659-7.131-6.941-10.681l-2.154,2.188V305.969z"/>
			<path class="st0" d="M425.691,306.254c-6.94,0-9.793-4.405-9.793-11.061c0-6.117,2.726-11.346,9.793-11.346
				c7.131,0,9.54,5.261,9.54,11.282C435.231,301.469,431.999,306.254,425.691,306.254z M425.691,286.541
				c-4.785,0-5.926,4.247-5.926,8.684c0,5.356,1.647,8.304,5.926,8.304c3.962,0,5.642-3.645,5.642-8.335
				C431.333,291.073,430.414,286.541,425.691,286.541z"/>
			<path class="st0" d="M439.418,305.969v-21.741h13.977v2.694h-10.3v6.623h8.304v2.6h-8.304v9.824H439.418z"/>
			<path class="st0" d="M471.021,305.969v-18.983h-6.94v-2.758h17.494v2.758h-6.909l-0.031,18.983H471.021z"/>
			<path class="st0" d="M497.519,305.969v-10.173h-9.317c0,2.788,0.031,7.416,0.031,10.173h-3.739v-21.741h3.739
				c0,2.472-0.031,6.528-0.031,9.032h9.317v-9.032h3.74v21.741H497.519z"/>
			<path class="st0" d="M506.079,305.969v-21.741h14.104v2.662h-10.396v6.37h8.748v2.536h-8.748v7.479h10.871v2.694H506.079z"/>
		</g>
		<g>
			<path class="st0" d="M182.253,333.009c0,5.008-2.726,8.177-8.685,8.177c-6.147,0-8.684-3.105-8.684-8.177v-13.85h3.645v13.945
				c0,3.612,1.839,5.355,5.103,5.355c3.138,0,5.039-1.68,5.039-5.355l-0.031-13.945h3.645L182.253,333.009z"/>
			<path class="st0" d="M188.025,341.186c-1.268,0-2.092-0.855-2.092-1.996c0-1.078,0.824-1.966,2.092-1.966
				s2.092,0.888,2.092,1.966C190.117,340.33,189.26,341.186,188.025,341.186z"/>
			<path class="st0" d="M207.866,320.238l-1.046,2.535c-2.092-0.919-4.057-1.109-5.546-1.109c-2.25,0-3.74,1.141-3.74,3.359
				c0,2.028,2.251,2.631,4.596,3.201c3.043,0.792,7.131,1.647,7.131,6.623c0,4.216-3.201,6.339-8.589,6.339
				c-2.218,0-5.134-0.443-7.479-1.711l1.078-2.631c2.82,1.236,5.07,1.458,6.592,1.458c2.947,0,4.563-0.888,4.563-3.455
				c0-2.218-1.711-2.852-4.12-3.485c-4.024-1.015-7.605-1.965-7.605-6.212c0-3.93,2.884-6.37,7.732-6.37
				C203.397,318.78,205.87,319.096,207.866,320.238z"/>
			<path class="st0" d="M214.271,341.186c-1.268,0-2.092-0.855-2.092-1.996c0-1.078,0.824-1.966,2.092-1.966
				s2.092,0.888,2.092,1.966C216.363,340.33,215.506,341.186,214.271,341.186z"/>
			<path class="st0" d="M243.082,320.238l-1.046,2.535c-2.092-0.919-4.057-1.109-5.546-1.109c-2.25,0-3.74,1.141-3.74,3.359
				c0,2.028,2.251,2.631,4.596,3.201c3.043,0.792,7.131,1.647,7.131,6.623c0,4.216-3.201,6.339-8.589,6.339
				c-2.218,0-5.134-0.443-7.479-1.711l1.078-2.631c2.82,1.236,5.07,1.458,6.592,1.458c2.947,0,4.563-0.888,4.563-3.455
				c0-2.218-1.711-2.852-4.12-3.485c-4.024-1.015-7.605-1.965-7.605-6.212c0-3.93,2.884-6.37,7.732-6.37
				C238.613,318.78,241.085,319.096,243.082,320.238z"/>
			<path class="st0" d="M257.504,341.186c-6.94,0-9.793-4.405-9.793-11.061c0-6.117,2.726-11.346,9.793-11.346
				c7.131,0,9.54,5.261,9.54,11.282C267.044,336.401,263.812,341.186,257.504,341.186z M257.504,321.473
				c-4.785,0-5.926,4.247-5.926,8.684c0,5.356,1.647,8.304,5.926,8.304c3.962,0,5.642-3.645,5.642-8.335
				C263.146,326.005,262.227,321.473,257.504,321.473z"/>
			<path class="st0" d="M286.539,320.523l-1.331,2.535c-1.584-1.109-3.105-1.458-4.849-1.458c-3.866,0-5.927,3.296-5.927,8.589
				c0,4.31,0.982,8.145,5.863,8.145c0.982,0,2.884-0.127,5.482-1.458l1.078,2.567c-1.712,1.141-4.849,1.743-6.846,1.743
				c-6.94,0-9.444-4.373-9.444-11.029c0-4.69,2.092-11.377,9.824-11.377C282.831,318.78,285.081,319.477,286.539,320.523z"/>
			<path class="st0" d="M305.748,320.523l-1.331,2.535c-1.584-1.109-3.105-1.458-4.849-1.458c-3.866,0-5.927,3.296-5.927,8.589
				c0,4.31,0.982,8.145,5.863,8.145c0.982,0,2.884-0.127,5.482-1.458l1.078,2.567c-1.712,1.141-4.849,1.743-6.846,1.743
				c-6.94,0-9.444-4.373-9.444-11.029c0-4.69,2.092-11.377,9.824-11.377C302.04,318.78,304.29,319.477,305.748,320.523z"/>
			<path class="st0" d="M309.649,340.901v-21.741h14.103v2.662h-10.395v6.37h8.748v2.536h-8.748v7.479h10.871v2.694H309.649z"/>
			<path class="st0" d="M338.904,331.52l4.69,9.381h-3.993l-4.311-9.001h-3.486v9.001h-3.645v-21.741h8.082
				c4.816,0,6.908,2.884,6.908,6.275C343.15,327.717,341.915,330.569,338.904,331.52z M335.64,329.301
				c1.965,0,3.739-0.95,3.739-3.771c0-2.504-1.584-3.708-3.803-3.708h-3.771v7.479H335.64z"/>
			<path class="st0" d="M356.371,340.901v-21.741h13.977v2.694h-10.3v6.623h8.304v2.6h-8.304v9.824H356.371z"/>
			<path class="st0" d="M373.932,340.901v-21.741h14.104v2.662H377.64v6.37h8.748v2.536h-8.748v7.479h10.871v2.694H373.932z"/>
			<path class="st0" d="M392.443,340.901v-21.741h6.909c7.447,0,10.078,4.976,10.078,10.808c0,5.895-3.011,10.934-10.3,10.934
				H392.443z M396.183,321.822v16.385h2.6c2.123,0,6.813-0.792,6.813-8.05c0-7.384-4.278-8.335-6.719-8.335H396.183z"/>
			<path class="st0" d="M413.585,340.901v-21.741h14.104v2.662h-10.396v6.37h8.748v2.536h-8.748v7.479h10.871v2.694H413.585z"/>
			<path class="st0" d="M442.842,331.52l4.69,9.381h-3.993l-4.311-9.001h-3.486v9.001h-3.645v-21.741h8.082
				c4.816,0,6.908,2.884,6.908,6.275C447.088,327.717,445.853,330.569,442.842,331.52z M439.577,329.301
				c1.965,0,3.739-0.95,3.739-3.771c0-2.504-1.584-3.708-3.803-3.708h-3.771v7.479H439.577z"/>
			<path class="st0" d="M464.49,340.901c-0.538-1.743-1.141-3.55-1.647-5.324h-8.271l-1.648,5.324h-3.708
				c2.504-7.543,4.976-14.801,7.289-21.741h4.659l7.131,21.741H464.49z M460.181,326.639c-0.951-3.265-1.173-4.024-1.363-4.785
				h-0.126c-0.92,3.169-1.142,4.024-1.395,4.849l-1.87,6.275h6.624C461.479,330.886,460.782,328.731,460.181,326.639z"/>
		</g>
		<g>
			<path class="st0" d="M474.32,340.901v-18.983h-6.94v-2.758h17.494v2.758h-6.909l-0.031,18.983H474.32z"/>
			<path class="st0" d="M488.11,340.901v-21.741h3.645v21.741H488.11z"/>
			<path class="st0" d="M506.049,341.186c-6.94,0-9.793-4.405-9.793-11.061c0-6.117,2.726-11.346,9.793-11.346
				c7.131,0,9.54,5.261,9.54,11.282C515.589,336.401,512.356,341.186,506.049,341.186z M506.049,321.473
				c-4.785,0-5.926,4.247-5.926,8.684c0,5.356,1.647,8.304,5.926,8.304c3.962,0,5.642-3.645,5.642-8.335
				C511.69,326.005,510.771,321.473,506.049,321.473z"/>
		</g>
		<g>
			<path class="st0" d="M533.756,335.323v-16.163h3.55v21.741h-3.645l-7.892-12.424c-0.349-0.602-2.155-3.454-2.504-4.088
				c-0.063,0-0.095,0.031-0.158,0.031v16.48h-3.519v-21.741h3.708l7.321,11.441l2.947,4.722H533.756z"/>
		</g>
	</g>
	<g>
		<g>
			<polygon class="st1" points="595.693,25.407 583.963,25.407 583.963,45.475 595.693,40.081 			"/>
			<g>
				<path class="st1" d="M478.219,73.341l9.895,4.568v71.305c0,0.784,0.047,1.56,0.14,2.331c0.401,3.318,1.655,6.449,3.594,9.083
					l-3.823-2.806c-6.456-4.741-9.824-12.252-9.824-20.438L478.219,73.341z M478.213,14.252h11.742v36.582
					c0,1.319,0.769,2.517,1.967,3.068l9.742,4.482V14.252h11.742v62.401l-30.633-14.101c-2.778-1.28-4.56-4.06-4.56-7.117V14.252z
					 M517.978,91.667l9.914,4.568v90l-9.914-7.154V91.667z M525.209,60.022l11.75,5.447v9.947l5.85,2.698l5.848-2.698V58.613
					l-18.889-8.69c-2.78-1.278-4.56-4.057-4.56-7.115V19.216c0-2.743,2.222-4.965,4.965-4.965h25.272
					c2.741,0,4.963,2.222,4.963,4.965v20.178l-11.75-5.447v-8.54h-11.698v14.635l18.885,8.669c2.782,1.276,4.564,4.057,4.564,7.117
					v21.363c0,2.961-1.724,5.65-4.413,6.885l-13.185,6.057l-13.192-6.068c-2.687-1.237-4.409-3.926-4.409-6.885V60.022z
					 M567.665,179.207l-9.914,7.163V96.257l9.914-4.547V179.207z M572.212,19.352c0-2.816,2.282-5.1,5.1-5.1h30.118v41.439
					c0,2.978-1.737,5.686-4.445,6.928l-7.292,3.347V52.984l-9.619,4.422c-1.286,0.59-2.112,1.877-2.112,3.293v10.668l-11.75,5.361
					V19.352z M597.619,157.822l-3.823,2.806c1.939-2.633,3.191-5.764,3.592-9.083c0.093-0.771,0.142-1.547,0.142-2.331V77.909
					l9.895-4.568l0.015,64.043C607.441,145.57,604.075,153.082,597.619,157.822 M587.552,164.845l-9.914,7.163V87.14l9.914-4.545
					V164.845z M547.776,193.573l-4.861,3.51l-5.053-3.648v-92.603l4.943,2.278l4.971-2.28V193.573z M508.005,171.882l-9.914-7.154
					V82.505l9.914,4.566V171.882z M468.18,135.236c0,13.147,6.385,25.56,17.077,33.206l57.583,41.181l57.555-41.178
					c10.688-7.647,17.068-20.059,17.068-33.201V3.868H468.18V135.236z"/>
			</g>
			<polygon class="st2" points="498.091,164.728 508.003,171.884 508.003,87.073 498.091,82.505 			"/>
			<polygon class="st2" points="527.893,96.236 517.978,91.667 517.978,179.081 527.893,186.238 			"/>
			<polygon class="st2" points="537.863,100.833 537.863,193.434 542.916,197.084 547.777,193.574 547.777,100.829 542.806,103.111 
							"/>
			<polygon class="st2" points="557.751,186.369 567.665,179.208 567.665,91.712 557.751,96.259 			"/>
			<polygon class="st2" points="577.637,172.007 587.552,164.846 587.552,82.597 577.637,87.142 			"/>
			<g>
				<path class="st2" d="M487.967,157.449l3.814,2.799c-1.933-2.627-3.186-5.75-3.584-9.061c-0.092-0.77-0.142-1.546-0.142-2.326
					V77.726l-9.869-4.557l-0.017,63.891C478.169,145.226,481.529,152.72,487.967,157.449"/>
				<path class="st2" d="M597.213,77.726v71.135c0,0.78-0.049,1.556-0.142,2.326c-0.4,3.308-1.649,6.434-3.583,9.061l3.814-2.799
					c6.44-4.729,9.798-12.223,9.798-20.39l-0.015-63.891L597.213,77.726z"/>
				<path class="st3" d="M529.462,83.866l13.16,6.056l13.154-6.043c2.683-1.234,4.403-3.917,4.403-6.868V55.699
					c0-3.055-1.78-5.828-4.555-7.102l-18.838-8.648V25.347h11.671v8.519l11.722,5.437V19.171c0-2.734-2.216-4.953-4.953-4.953
					h-25.212c-2.734,0-4.951,2.218-4.951,4.953v23.535c0,3.05,1.776,5.823,4.549,7.098l18.844,8.672v16.761l-5.834,2.694
					l-5.836-2.694v-9.923l-11.722-5.434V77C525.064,79.951,526.781,82.632,529.462,83.866"/>
				<path class="st3" d="M583.677,25.349h11.703v14.639l-11.703,5.381V25.349z M583.677,60.557c0-1.412,0.823-2.696,2.107-3.287
					l9.596-4.409v12.95l7.275-3.338c2.702-1.24,4.435-3.94,4.435-6.913V14.218h-30.046c-2.812,0-5.088,2.279-5.088,5.088v57.242
					l11.722-5.349V60.557z"/>
				<path class="st3" d="M482.728,62.405l30.56,14.068V14.219h-11.714v44.028l-9.721-4.473c-1.195-0.548-1.96-1.743-1.96-3.059
					V14.219h-11.714v41.085C478.179,58.355,479.954,61.128,482.728,62.405"/>
				<path class="st3" d="M617.099,134.921c0,13.111-6.367,25.493-17.03,33.122l-57.418,41.081l-57.446-41.081
					c-10.667-7.629-17.036-20.014-17.036-33.129V3.859h148.931V134.921z M464.312,0.002v134.912
					c0,14.358,6.971,27.914,18.651,36.265l59.688,42.689l59.662-42.686c11.673-8.354,18.642-21.907,18.642-36.261V0.002H464.312z"/>
			</g>
		</g>
		<g>
			<path class="st0" d="M0,25.641h10.972c5.558,0,8.176-2.868,8.176-6.92c0-3.264-1.721-5.486-5.307-6.204
				c3.156-0.788,4.59-2.69,4.59-5.522c0-3.586-2.618-6.455-8.175-6.455H0V25.641z M9.538,14.992c2.08,0,3.478,1.004,3.478,3.119
				c0,2.224-1.399,3.12-3.478,3.12h-3.55v-6.239H9.538z M8.857,4.951c2.08,0,3.478,0.896,3.478,2.94
				c0,2.044-1.398,2.941-3.478,2.941H5.989V4.951H8.857z M41.278,0.54h-6.204l-9.395,25.101h6.239l1.685-5.199h9.073l1.685,5.199
				h6.311L41.278,0.54z M38.194,6.529l2.976,9.252h-6.024L38.194,6.529z M82.013,0.54h-5.666v16.782L65.661,0.54h-6.383v25.101
				h5.666V8.896L75.63,25.641h6.383V0.54z M108.328,25.641l-8.247-12.766v12.766h-6.096V0.54h6.096v12.084l7.853-12.084h6.813
				l-8.212,12.049l9,13.052H108.328z M137.08,13.091c0,5.02,3.012,8.104,6.921,8.104c3.909,0,6.921-3.084,6.921-8.104
				c0-5.021-3.012-8.104-6.921-8.104C140.092,4.987,137.08,8.07,137.08,13.091L137.08,13.091z M130.625,13.091
				C130.661,5.74,135.861,0.002,144,0.002c8.14,0,13.34,5.737,13.375,13.089C157.34,20.442,152.14,26.179,144,26.179
				C135.861,26.179,130.661,20.442,130.625,13.091L130.625,13.091z M165.763,25.641h6.096v-9.897h7.925V10.94h-7.925V5.345h9.61
				l1.076-4.805h-16.782V25.641z M210.983,0.54h-6.204l-9.395,25.101h6.24l1.685-5.199h9.073l1.685,5.199h6.311L210.983,0.54z
				 M207.899,6.529l2.976,9.252h-6.024L207.899,6.529z M256.711,0.54h-7.136l-6.526,13.555l-6.49-13.555h-7.136v25.101h5.487V8.859
				l8.068,16.782l8.068-16.782v16.782h5.666V0.54z M268.545,25.641h17.14v-4.805h-11.044v-5.594h8.714v-4.661h-8.714V5.345h10.112
				l1.076-4.805h-17.284V25.641z M308.958,25.641h6.633l-6.275-10.65c3.406-0.933,5.056-3.335,5.056-6.885
				c0-4.554-2.725-7.566-8.893-7.566h-9.646v25.101h5.988v-9.897h1.613L308.958,25.641z M304.403,5.166
				c2.51,0,3.837,1.112,3.837,3.191c0,2.151-1.327,3.228-3.837,3.228h-2.582V5.166H304.403z M324.735,25.641h6.096v-1.638V0.54
				h-6.096V25.641z M360.916,18.9c-2.366,1.613-4.41,2.188-6.49,2.188c-4.697,0-7.925-3.191-7.925-7.996
				c0-4.805,3.227-7.997,7.781-7.997c2.08,0,4.088,0.574,6.347,2.187V1.616c-2.08-1.147-4.446-1.614-7.136-1.614
				c-8.319,0-13.518,5.737-13.555,13.089c0.036,7.422,5.164,13.088,13.591,13.088c2.797,0,5.235-0.466,7.386-1.613V18.9z
				 M383.256,0.54h-6.203l-9.395,25.101h6.239l1.686-5.199h9.072l1.686,5.199h6.311L383.256,0.54z M380.173,6.529l2.976,9.252
				h-6.024L380.173,6.529z"/>
			<g>
				<g>
					<path class="st4" d="M209.62,210.369c0-1.887,1.595-3.443,3.58-3.443c1.963,0,3.553,1.556,3.553,3.443
						c0,1.95-1.59,3.499-3.553,3.499C211.216,213.869,209.62,212.32,209.62,210.369 M210.297,210.369
						c0,1.59,1.292,2.818,2.904,2.818c1.59,0,2.86-1.228,2.86-2.818c0-1.519-1.269-2.762-2.86-2.762
						C211.588,207.608,210.297,208.85,210.297,210.369"/>
					<path class="st4" d="M214.965,212.342h-0.669l-1.147-1.799h-0.693v1.799h-0.576v-3.889h1.718c0.351,0,0.669,0.022,0.973,0.194
						c0.297,0.157,0.441,0.505,0.441,0.826c0,0.767-0.546,1.046-1.262,1.071L214.965,212.342z M213.103,210.068
						c0.571,0,1.34,0.103,1.34-0.608c0-0.505-0.448-0.559-0.968-0.559h-1.019v1.167H213.103z"/>
				</g>
				<g>
					<path class="st5" d="M195.935,213.869c43.918-37.601,105.622-74.246,139.455-87.356c-5.266-3.358-13.433-8.177-22.565-13.41
						c-43.634,14.395-94.642,46.478-140.297,82.713C180.303,201.456,188.325,207.659,195.935,213.869z"/>
					<path class="st0" d="M175.798,111.636c-6.533-3.034-13.521-6.064-19.131-8.561c-16.561,8.158-38.029,20.601-65.255,39.955
						c5.936,3.123,12.19,6.859,18.906,10.643C131.26,138.159,152.403,123.457,175.798,111.636z"/>
					<path class="st5" d="M214.885,93.516c-7.886-4.495-35.63-14.539-54.643-18.962c-5.609,2.16-13.564,5.205-19.011,7.496
						c6.803,1.924,32.605,8.737,54.558,19.853C201.636,99.256,209.386,95.858,214.885,93.516z"/>
					<path class="st0" d="M121.398,90.807c-24.558,11.297-50.142,26.84-64.137,35.706c4.967,2.23,9.992,4.176,16.923,7.581
						c30.9-20.936,55.136-33.62,64.848-37.872C132.152,93.915,125.555,92.058,121.398,90.807z"/>
					<path class="st5" d="M233.263,87.2c5.557-1.8,12.205-3.607,17.813-5.181c-16.407-6.905-36.873-14.146-55.138-18.732
						c-2.856,0.781-11.623,3.196-17.86,5.091C184.394,69.92,205.167,74.717,233.263,87.2z"/>
					<path class="st5" d="M130.134,165.707c6.625,4.028,13.858,9.496,20.744,14.03c45.787-35.487,90.939-63.009,140.645-78.529
						c-6.907-3.484-12.964-6.611-20.629-10.361C241.032,98.436,190.344,118.779,130.134,165.707z"/>
				</g>
			</g>
		</g>
	</g>
</g>
</svg>
